<svg xmlns="http://www.w3.org/2000/svg" viewBox="0 0 1000 1000">
    <title>logo_nmy_2015_all_black</title>
    <g id="53817862-8d0e-4657-8fc8-86ee4e653374" data-name="Calque 2">
        <g id="5cb4b4e8-5712-4e8b-90c5-a170ef9db941" data-name="Calque 1">
            <rect width="1000" height="1000" style="fill:none"/>
            <path d="M168.8457,727.4788v35.5531a4.5926,4.5926,0,0,1-1.37,3.2976,4.4254,4.4254,0,0,1-3.2952,1.4139,4.488,4.488,0,0,1-3.2966-1.3706,4.5467,4.5467,0,0,1-1.37-3.3409V713.1728a3.9425,3.9425,0,0,1,1.6692-3.77,4.995,4.995,0,0,1,3.7244-.9844,4.4144,4.4144,0,0,1,2.9956,1.8419l27.6505,38.293V713.2579a4.679,4.679,0,0,1,4.623-4.6264,4.5946,4.5946,0,0,1,3.2966,1.3706,4.3915,4.3915,0,0,1,1.4114,3.2558v49.7741a4.4792,4.4792,0,0,1-1.4114,3.3409,4.6818,4.6818,0,0,1-3.3816,1.3706,4.37,4.37,0,0,1-3.4248-1.7137,2.3548,2.3548,0,0,1-.4278-.5131Zm63.2625-15.0771V714.2a4.6251,4.6251,0,0,1-1.3264,3.3409,4.3534,4.3534,0,0,1-3.2534,1.3706,4.488,4.488,0,0,1-3.2966-1.3706,4.5467,4.5467,0,0,1-1.37-3.3409v-1.7987a4.6234,4.6234,0,1,1,9.2461,0ZM224.19,726.3229a4.7519,4.7519,0,0,1,6.5918,0,4.59,4.59,0,0,1,1.3264,3.3841v33.41a4.4841,4.4841,0,0,1-1.3264,3.299,4.4253,4.4253,0,0,1-3.2534,1.3274,4.6785,4.6785,0,0,1-4.6662-4.6264v-33.41A4.5806,4.5806,0,0,1,224.19,726.3229Zm24.3539,35.1236a20.9637,20.9637,0,0,1,0-30.1974,21.51,21.51,0,0,1,15.3224-6.34,21.9007,21.9007,0,0,1,13.6114,4.7115,4.4035,4.4035,0,0,1,1.7124,3.0411,4.3079,4.3079,0,0,1-.8987,3.3841,4.4836,4.4836,0,0,1-2.9956,1.7137,4.0851,4.0851,0,0,1-3.2966-.9426,14.1237,14.1237,0,0,0-8.5174-2.7413,11.8769,11.8769,0,0,0-8.5174,3.6839,11.8164,11.8164,0,0,0-.0432,17.262,11.8421,11.8421,0,0,0,8.5174,3.6406,14.17,14.17,0,0,0,8.5606-2.7413,4.0662,4.0662,0,0,1,3.2534-.8561,4.5213,4.5213,0,0,1,3.0388,1.7137,4.1734,4.1734,0,0,1,.8987,3.2976,4.9886,4.9886,0,0,1-1.7124,3.1275,22.9221,22.9221,0,0,1-13.6114,4.54A21.1177,21.1177,0,0,1,248.5438,761.4466Zm82.2674-16.2344a3.9647,3.9647,0,0,1-1.2415,3.0411,4.64,4.64,0,0,1-3.2952,1.1573H299.0518a10.2887,10.2887,0,0,0,2.9107,5.6541q2.7379,3.1707,8.0032,3.8121a12.55,12.55,0,0,0,9.1179-2.0985,4.4683,4.4683,0,0,1,3.4234-1.3706,3.5705,3.5705,0,0,1,2.997,1.1127q2.3951,2.6562,0,5.569A21.371,21.371,0,0,1,310.3934,767.7a20.1156,20.1156,0,0,1-14.981-6.2969,21.6864,21.6864,0,0,1,0-30.1974,19.4766,19.4766,0,0,1,14.5965-6.2969,20.077,20.077,0,0,1,14.4251,5.6109,20.6952,20.6952,0,0,1,6.3772,14.2642ZM310.18,733.0479a12.0817,12.0817,0,0,0-7.9614,3.0843,11.186,11.186,0,0,0-3.5962,5.9957H322.85a11.6732,11.6732,0,0,0-4.1521-5.8242A14.8339,14.8339,0,0,0,310.18,733.0479Zm70.9647-8.1388a4.6874,4.6874,0,0,1,3.3816,1.3706,4.4317,4.4317,0,0,1,1.4128,3.2976,4.8241,4.8241,0,0,1-4.7944,4.7547h-2.14V758.234a4.471,4.471,0,0,1,3.3384,1.4139,4.6945,4.6945,0,0,1,1.37,3.3841,4.6783,4.6783,0,0,1-4.708,4.7115,9.5034,9.5034,0,0,1-9.5025-9.5095V734.3321h-2.4815a4.7115,4.7115,0,1,1,0-9.423h2.4815V712.4868a4.48,4.48,0,0,1,1.4128-3.3409,4.6851,4.6851,0,0,1,3.3816-1.3706,4.6783,4.6783,0,0,1,4.708,4.7115V724.909ZM417.87,768a19.3684,19.3684,0,0,1-14.6383-6.3387,22.1792,22.1792,0,0,1,.0418-30.37,19.2641,19.2641,0,0,1,14.51-6.3819,18.8866,18.8866,0,0,1,14.4251,6.4684,21.9506,21.9506,0,0,1,5.9495,15.3769,19.6791,19.6791,0,0,1-5.9927,14.7355A18.1106,18.1106,0,0,1,417.87,768Zm-8.2178-30.4972a13.2133,13.2133,0,0,0-3.082,8.9085,13.8814,13.8814,0,0,0,3.082,9.0814,11.7989,11.7989,0,0,0,16.0929,0,13.217,13.217,0,0,0,3.3384-9.0814,12.5973,12.5973,0,0,0-3.3384-8.9085,11.5709,11.5709,0,0,0-16.0929,0Zm92.1112,8.5669h-.1714a4.6381,4.6381,0,0,1-3.9375-1.97l-12.2417-17.1338v36.0662A4.4754,4.4754,0,0,1,484,766.3728a4.6818,4.6818,0,0,1-3.3816,1.3706,4.6783,4.6783,0,0,1-4.708-4.7115V712.4868a4.6783,4.6783,0,0,1,4.708-4.7115h.2564a4.2147,4.2147,0,0,1,3.7675,1.97l17.0348,23.6454,17.0362-23.6454a4.5589,4.5589,0,0,1,3.8525-1.97h.085a5.0243,5.0243,0,0,1,3.3816,1.4557,4.3877,4.3877,0,0,1,1.4128,3.2558v50.5451a4.5208,4.5208,0,0,1-1.4128,3.2976,4.6122,4.6122,0,0,1-3.3816,1.4139,4.6783,4.6783,0,0,1-4.708-4.7115V726.9657l-12.3281,17.1338A4.5617,4.5617,0,0,1,501.7636,746.07Zm45.07,15.42a22.4841,22.4841,0,0,1,0-30.2839,19.0293,19.0293,0,0,1,14.51-6.2969A19.3013,19.3013,0,0,1,572.73,728.678a5.3553,5.3553,0,0,1,1.626-2.6981,4.271,4.271,0,0,1,2.9538-1.0709,4.17,4.17,0,0,1,3.082,1.3706,4.5281,4.5281,0,0,1,1.3264,3.2558v33.6679a4.3826,4.3826,0,0,1-1.3264,3.2126,4.23,4.23,0,0,1-3.082,1.3274,4.3812,4.3812,0,0,1-2.9538-1.0276,5.1049,5.1049,0,0,1-1.626-2.6562,19.3378,19.3378,0,0,1-11.3862,3.6839A19.092,19.092,0,0,1,546.8334,761.49Zm3.2966-15.12a12.605,12.605,0,0,0,3.1238,8.6952,10.2751,10.2751,0,0,0,8.0478,3.5124,10.5363,10.5363,0,0,0,8.1314-3.5124,12.3507,12.3507,0,0,0,3.21-8.6533,12.565,12.565,0,0,0-3.252-8.737,10.4626,10.4626,0,0,0-8.09-3.5988,10.26,10.26,0,0,0-8.0046,3.5556A12.66,12.66,0,0,0,550.13,746.3695Zm61.1209-21.46a4.6874,4.6874,0,0,1,3.3816,1.3706,4.4317,4.4317,0,0,1,1.4128,3.2976,4.8241,4.8241,0,0,1-4.7944,4.7547h-2.14V758.234a4.471,4.471,0,0,1,3.3384,1.4139,4.6945,4.6945,0,0,1,1.37,3.3841,4.6783,4.6783,0,0,1-4.708,4.7115,9.5034,9.5034,0,0,1-9.5025-9.5095V734.3321h-2.4815a4.7115,4.7115,0,1,1,0-9.423h2.4815V712.4868a4.48,4.48,0,0,1,1.4128-3.3409,4.6851,4.6851,0,0,1,3.3816-1.3706,4.6783,4.6783,0,0,1,4.708,4.7115V724.909Zm56.5843,20.3031a3.9647,3.9647,0,0,1-1.2415,3.0411,4.64,4.64,0,0,1-3.2952,1.1573H636.0758a10.2887,10.2887,0,0,0,2.9107,5.6541q2.7379,3.1707,8.0032,3.8121a12.55,12.55,0,0,0,9.1179-2.0985,4.4683,4.4683,0,0,1,3.4234-1.3706,3.5705,3.5705,0,0,1,2.997,1.1127q2.3951,2.6562,0,5.569A21.371,21.371,0,0,1,647.4174,767.7a20.1156,20.1156,0,0,1-14.981-6.2969,21.6864,21.6864,0,0,1,0-30.1974,19.4766,19.4766,0,0,1,14.5965-6.2969,20.077,20.077,0,0,1,14.4251,5.6109,20.6952,20.6952,0,0,1,6.3772,14.2642Zm-20.6309-12.1643a12.0817,12.0817,0,0,0-7.9614,3.0843,11.186,11.186,0,0,0-3.5962,5.9957h24.2271a11.6732,11.6732,0,0,0-4.1521-5.8242A14.8339,14.8339,0,0,0,647.2043,733.0479Zm94.6359-24.63a4.4261,4.4261,0,0,1,3.468.8561,4.6012,4.6012,0,0,1,1.8406,3.0843,4.5254,4.5254,0,0,1-.8137,3.4691l-17.5489,24.0734v23.1309a4.5467,4.5467,0,0,1-1.37,3.3409,4.49,4.49,0,0,1-3.2966,1.3706,4.6316,4.6316,0,0,1-3.3384-1.3706,4.4754,4.4754,0,0,1-1.4128-3.3409V739.9011l-17.3775-24.0734a4.4073,4.4073,0,0,1-.9419-3.4259,4.4677,4.4677,0,0,1,1.8838-3.0843,4.5222,4.5222,0,0,1,3.51-.8994,4.3382,4.3382,0,0,1,2.9956,1.927l14.64,20.0466,14.6383-20.0466A4.653,4.653,0,0,1,741.84,708.4181ZM772.3581,768a19.3684,19.3684,0,0,1-14.6383-6.3387,22.1792,22.1792,0,0,1,.0418-30.37,19.2641,19.2641,0,0,1,14.51-6.3819,18.8866,18.8866,0,0,1,14.4251,6.4684,21.9506,21.9506,0,0,1,5.9495,15.3769,19.6791,19.6791,0,0,1-5.9927,14.7355A18.1106,18.1106,0,0,1,772.3581,768ZM764.14,737.5028a13.2133,13.2133,0,0,0-3.082,8.9085,13.8814,13.8814,0,0,0,3.082,9.0814,11.7989,11.7989,0,0,0,16.0929,0,13.217,13.217,0,0,0,3.3384-9.0814,12.5973,12.5973,0,0,0-3.3384-8.9085,11.5709,11.5709,0,0,0-16.0929,0Zm76.36,12.4209a17.013,17.013,0,0,1-5.35,12.5505,17.4508,17.4508,0,0,1-12.6695,5.2692,17.908,17.908,0,0,1-17.8485-17.82V729.449a4.4161,4.4161,0,0,1,1.3264-3.1694,4.4447,4.4447,0,0,1,6.42,0,4.4274,4.4274,0,0,1,1.3264,3.1694v20.4746a8.6277,8.6277,0,0,0,8.732,8.7384,8.719,8.719,0,0,0,6.2922-2.5266,8.6025,8.6025,0,0,0,2.6961-6.2118V729.449A4.4951,4.4951,0,0,1,832.71,726.28a4.12,4.12,0,0,1,3.1238-1.3706,4.5385,4.5385,0,0,1,3.2534,1.3706A4.2923,4.2923,0,0,1,840.5,729.449ZM608.7477,380.8677a6.0438,6.0438,0,0,0-8.3555,1.6627l-30.527,45.4752a.7861.7861,0,0,1-1.3043,0l-28.4764-42.5012a13.3086,13.3086,0,0,0-22.0852,0l-29.13,43.4746L458.68,383.923c-4.7956-7.1573-16.0078-3.7793-16.0078,4.823v91.1945l-64.4928-96.26c-4.747-7.0849-15.8455-3.7411-15.8455,4.7739V493.7466a6.0254,6.0254,0,0,0,12.0507,0V399.6336l64.5619,96.3624c4.726,7.054,15.7764,3.7249,15.7764-4.7531v-91.61l29.2276,43.6219a5.9277,5.9277,0,0,0,9.8368,0l29.2232-43.6134v94.29a6.0254,6.0254,0,0,0,12.0507,0V399.6241L563.18,441.5909v52.28a6.0254,6.0254,0,0,0,12.0507,0V441.6257l35.1882-52.4438A5.9773,5.9773,0,0,0,608.7477,380.8677Zm62.8754,141.4087L304.599,632.1748a5.0847,5.0847,0,0,1-6.5481-4.8628V364.4666a8.0221,8.0221,0,0,1,5.7264-7.6819l366.0141-109.596a4.6,4.6,0,0,1,5.9232,4.3987v265.2A5.7317,5.7317,0,0,1,671.6231,522.2764ZM285.9978,355.5157V639.5251a8.0326,8.0326,0,0,0,10.3444,7.6819l385.6991-115.49a8.0221,8.0221,0,0,0,5.7264-7.6819V240.0254a8.0326,8.0326,0,0,0-10.3444-7.6819l-385.6991,115.49A8.0221,8.0221,0,0,0,285.9978,355.5157Z"/>
        </g>
    </g>
</svg>